<?xml version="1.0" encoding="UTF-8"?>
<svg width="100" height="100" viewBox="0 0 100 100" xmlns="http://www.w3.org/2000/svg">
  <defs>
    <linearGradient id="bg-gradient" x1="0%" y1="0%" x2="100%" y2="100%">
      <stop offset="0%" stop-color="#FF7A00" />
      <stop offset="100%" stop-color="#FFA500" />
    </linearGradient>
  </defs>
  <circle cx="50" cy="50" r="48" fill="url(#bg-gradient)" stroke="#222" stroke-width="2" />
  <g fill="#222">
    <!-- Stylized Vape Cloud -->
    <path d="M32,40 C42,28 58,28 68,40 C76,50 76,65 68,75 C60,83 40,83 32,75 C24,65 24,50 32,40 Z" fill="#F8F8F8" opacity="0.9" />
    <path d="M38,45 C45,36 55,36 62,45 C68,53 68,64 62,72 C56,78 44,78 38,72 C32,64 32,53 38,45 Z" fill="#FFF" opacity="0.7" />
    
    <!-- V letter -->
    <path d="M35,30 L45,60 L55,30 L65,30 L50,75 L40,75 L25,30 Z" fill="#222" />
    
    <!-- C letter -->
    <path d="M70,40 Q75,50 70,60 Q65,70 55,70 Q45,70 40,60 Q35,50 40,40 Q45,30 55,30 Q65,30 70,40 Z M65,40 Q62,35 55,35 Q48,35 45,40 Q40,50 45,60 Q48,65 55,65 Q62,65 65,60 Q70,52 65,40 Z" fill="#222" />
  </g>
</svg>